PathFileType	4	(X/Y/Z)	Patient4_TMGait_0pt7_01_left_36.trc.trc
DataRate	CameraRate	NumFrames	NumMarkers	Units	OrigDataRate	OrigDataStartFrame	OrigNumFrames
84.337349397591	84.337349397591	4	33	mm	84.337349397591	106	       141
Frame#	Time	Sacral			L.Shoulder			Chest			R.Shoulder			Neck			R.ASIS			L.ASIS			R.Thigh.Superior			R.Thigh.Lateral			R.Thigh.Inferior			R.Patella			L.Thigh.Superior			L.Thigh.Lateral			L.Thigh.Inferior			L.Patella			L.Shank.Superior			L.Shank.Lateral			L.Shank.Inferior			R.Shank.Superior			R.Shank.Lateral			R.Shank.Inferior			R.Heel			R.Midfoot.Superior			R.Midfoot.Lateral			R.Toe			L.Heel			L.Midfoot.Lateral			L.Midfoot.Superior			L.Toe			L.Elbow			L.Wrist			R.Elbow			R.Wrist			
		X1	Y1	Z1	X2	Y2	Z2	X3	Y3	Z3	X4	Y4	Z4	X5	Y5	Z5	X6	Y6	Z6	X7	Y7	Z7	X8	Y8	Z8	X9	Y9	Z9	X10	Y10	Z10	X11	Y11	Z11	X12	Y12	Z12	X13	Y13	Z13	X14	Y14	Z14	X15	Y15	Z15	X16	Y16	Z16	X17	Y17	Z17	X18	Y18	Z18	X19	Y19	Z19	X20	Y20	Z20	X21	Y21	Z21	X22	Y22	Z22	X23	Y23	Z23	X24	Y24	Z24	X25	Y25	Z25	X26	Y26	Z26	X27	Y27	Z27	X28	Y28	Z28	X29	Y29	Z29	X30	Y30	Z30	X31	Y31	Z31	X32	Y32	Z32	X33	Y33	Z33	

106	42.805000000000	844.226058543669	1018.111191371385	545.921447366981	1037.517458124321	1437.722112777003	360.257165117865	1148.346383111082	1358.382570522020	513.104547586237	1083.939868487429	1437.919381471026	692.782458280561	1058.308757075792	1495.823478211455	515.983822600124	1073.321614538219	947.364523421268	653.971200938313	1047.317320293822	962.115310285930	380.423546696134	1099.309763741343	743.337857031860	625.750800236721	1010.154168530268	638.190470326136	682.855690036787	1084.145835750139	582.707170131363	603.153912051407	1077.780883911002	496.022484450650	606.589313888091	1134.217434095045	794.988437110055	399.470147997233	1094.765761976662	669.865392445720	314.318542505444	1206.059705942734	613.393271669638	366.288078503559	1228.233113631831	528.909807697794	354.943458623613	1175.825397300713	453.949131241965	349.521250852108	1047.543231569105	380.899147926762	302.766672353723	1067.212267608009	251.534012535767	355.298393724377	1048.727786750268	408.745809448403	609.685645894930	973.880795358203	305.274994569691	668.210622905069	1015.108156996071	211.351909629170	600.774945787733	876.238340337160	48.292259791863	566.933762021339	1052.013178389991	98.670461612426	596.454990208943	963.457579642248	37.734590943962	635.051702863135	1171.043883546114	39.773663750069	612.948880517776	898.841477121533	142.844708930345	393.477597101141	964.002093174006	114.741656681435	311.289743494145	1064.661767226749	145.763973911807	332.353808087716	1164.923260965228	54.551608730796	300.039244301635	927.744886060134	1106.576787023501	240.635880027003	920.502805432864	845.355819436849	228.473800332923	1112.721812037356	1101.682175355198	837.237654479639	1322.683906279258	955.185427699343	794.670398647619	
107	42.816857142857	842.820179489994	1018.351278484084	546.605217255278	1036.357392195649	1437.741037709207	360.577147520702	1147.681520384190	1357.922675529333	512.760545717431	1084.393166398126	1437.362725482732	692.892535088279	1057.975222815430	1495.565945677982	516.308975917832	1072.124836722429	947.298159434884	653.807857493048	1045.399545571728	961.895584217154	380.289579197167	1095.996349694030	742.807336397215	625.392063652458	1006.099518831242	638.266140112277	683.104986725129	1079.119436367125	582.065633705897	603.327218370675	1071.835562158858	495.547063286356	606.805647546401	1132.842293960650	796.518025043499	399.834132527876	1095.002793085014	670.970899811589	314.283592686302	1206.454015938251	615.698901952349	366.835898085706	1230.454138744339	532.844348570064	355.317189720779	1181.856926249678	456.869789460328	349.177174523487	1058.547911456137	376.462760596404	301.500969479657	1086.317460499906	248.046755905405	353.188337303309	1042.208857752965	408.419550293783	609.903999596867	966.846008560552	305.358042669772	668.406567758718	1007.561740681095	211.233777337931	600.945492580951	867.969960000655	48.521220070648	566.996230526321	1043.758475901642	98.636631927080	596.556789191252	955.157032746167	37.773288234532	635.109327285199	1162.718098388343	39.633083293667	613.058110799935	925.310564768902	128.745027874066	390.333728925776	992.184295382950	105.295436822708	308.078873667733	1090.673140118962	142.283753062573	329.576347968347	1196.428020285638	57.540363119973	296.919092000027	918.121008902121	1110.028528416860	240.894680168379	902.323994020161	849.332972985246	229.066124107729	1118.630831816801	1101.912104947704	837.005829433243	1333.376961799610	964.725207852962	789.292209175535	
108	42.828714285714	841.485614165670	1018.546186455172	547.115100584058	1035.220683360072	1437.799240034694	360.820651722901	1147.016542387714	1357.434930288755	512.295792904675	1084.791577864364	1436.687700286581	692.913958787954	1057.606633934250	1495.268136744044	516.597404701893	1070.967496075535	947.193203477510	653.422033602503	1043.545466853613	961.571992852916	379.928844428548	1092.595862010522	742.179157217244	624.960419354402	1001.835032310330	638.328645789959	683.273886935796	1073.797409983066	581.381706071133	603.410582054318	1065.564186110620	495.090250388831	606.956579788406	1131.123345083525	797.507638282284	400.069699597372	1094.626418984485	671.584107801469	314.205777143883	1206.044148695331	617.276269288130	367.492747301147	1231.729094365017	536.212402110342	355.873012435323	1187.056286023874	459.542833742491	348.980858085711	1069.354040910540	371.943828126005	300.279308096375	1105.295853277248	245.043159190882	351.202625693275	1035.421128993435	408.119262456147	610.084840567922	959.600274350439	305.421995848720	668.552110034291	999.882338009859	211.120974761922	601.089559484317	859.674095117044	48.687898740420	567.041448169635	1035.468286742064	98.589802607251	596.623059363818	946.836366769250	37.790607154620	635.156930484234	1154.374639540792	39.522805844812	613.152862301214	952.476457820487	115.465439193931	387.219676182077	1020.869515818398	96.777916415237	305.003931538334	1116.735217575769	139.664698390569	327.025667458605	1227.648563802953	61.766406321649	294.260602471523	908.733803838575	1113.700850657177	241.233531131767	885.210919353859	853.689102015631	229.995094010391	1124.116951393546	1102.002799207114	836.406138040291	1343.280094572590	974.778548578879	783.258962804443	
109	42.840571428571	840.251964666864	1018.683785538375	547.455556230347	1034.125271038942	1437.876761611792	360.973854171522	1146.354501366054	1356.917264290734	511.720400583168	1085.121171463941	1435.908802942911	692.836901433860	1057.207208063967	1494.929548055428	516.827980551590	1069.857234961999	947.041815975601	652.847099164517	1041.781238831275	961.154196248880	379.357861523020	1089.130417858067	741.443678053851	624.493712857195	997.351372149777	638.371778758103	683.355253321135	1068.196581390261	580.652846079019	603.416426760927	1058.989678650251	494.645759332953	607.044073931042	1129.094640505002	797.966861947273	400.174411761840	1093.665502762504	671.719454012336	314.056023133793	1204.898523792526	618.147803144196	368.195715067879	1232.123385492135	539.011733228921	356.563095699974	1191.435046933634	461.961189253058	348.914245207871	1079.897690746666	367.458342956218	299.104661724464	1123.927617326476	242.640112752618	349.386844718319	1028.382921636124	407.844554730100	610.220882329518	952.140724433999	305.468439909397	668.631407584265	992.069237357769	211.010165983266	601.197607589425	851.347922810914	48.780845130664	567.065892684325	1027.140865078748	98.534001623360	596.652551603510	938.492310115241	37.787405843631	635.192487211781	1146.014055159631	39.448505381377	613.234731848322	979.980916936796	103.287623577340	384.203925537815	1049.706940289427	89.389628456935	302.144854032667	1142.527773234837	138.032211386822	324.769740054411	1258.205011253849	67.268942238095	292.162504033451	899.657944855374	1117.529270051992	241.662907421059	869.147000480612	858.297502886255	231.198244516455	1129.177466831296	1101.938137623058	835.404922152635	1352.327769116522	985.340276444342	776.604074491910	
